<svg width="300" height="60"  viewBox="0 0 350" fill="none" xmlns="http://www.w3.org/2000/svg">
<rect   fill="white"/>
<path fill-rule="evenodd" clip-rule="evenodd" d="M124.524 26.5188C122.816 26.6852 121.436 27.0295 120.092 27.6244C119.104 28.0619 117.919 28.7492 117.638 29.0481C117.359 29.3455 117.542 29.8318 117.958 29.8967C118.117 29.9215 118.214 29.8773 118.72 29.5503C119.4 29.1112 120.455 28.582 121.2 28.3061C121.733 28.1089 123.045 27.7545 123.243 27.7545C123.347 27.7545 123.347 27.7573 123.253 27.8996C122.398 29.1822 121.798 30.7688 121.309 33.0369L121.223 33.4388L120.87 33.5259C120.098 33.7164 119.512 34.2685 119.255 35.049C119.227 35.1353 119.055 35.1413 116.638 35.1413C115.215 35.1413 114.051 35.1262 114.051 35.1076C114.051 35.0132 114.662 33.8407 114.927 33.4265C115.305 32.8355 115.331 32.6304 115.058 32.3863C114.907 32.2511 114.85 32.2316 114.675 32.2551C114.403 32.2915 114.362 32.3308 114.016 32.8903C111.232 37.3917 111.339 43.1322 114.29 47.5305L114.514 47.8651L114.359 48.1659C114.145 48.5811 114.065 49.0778 114.142 49.5238C114.397 51.0121 115.999 51.8238 117.328 51.1382L117.626 50.9842L118.094 51.2874C120.239 52.6774 122.497 53.3912 125.047 53.4861C129.755 53.6612 134.196 51.3487 136.826 47.3522C138.319 45.0836 139.093 42.2903 138.991 39.5425C138.896 36.9917 138.182 34.7342 136.792 32.5894L136.489 32.1216L136.643 31.823C136.856 31.4098 136.935 30.9126 136.859 30.4672C136.604 28.9777 135.002 28.1673 133.671 28.854L133.37 29.0092L133.035 28.7847C131.356 27.6583 129.469 26.9339 127.4 26.6212C126.874 26.5418 124.98 26.4743 124.524 26.5188ZM125.962 27.6735C127.12 28.2125 128.277 30.8296 128.822 34.1388C128.881 34.5016 128.943 34.8758 128.959 34.9703L128.988 35.1423L126.263 35.1286L123.538 35.115L123.441 34.861C123.262 34.3879 122.928 34.0314 122.287 33.6264C122.256 33.6068 122.422 32.8405 122.634 32.0283C123.329 29.3557 124.487 27.5445 125.5 27.5445C125.602 27.5445 125.81 27.6026 125.962 27.6735ZM128.569 27.9326C128.956 28.0305 129.51 28.1986 129.801 28.3061C131.004 28.7517 132.724 29.7174 132.651 29.906C132.523 30.2341 132.455 30.6622 132.481 30.9731C132.609 32.5091 134.119 33.4184 135.589 32.8453C135.66 32.8176 135.746 32.9109 135.984 33.2766C136.272 33.7182 136.95 34.9935 136.95 35.0944C136.95 35.1213 135.481 35.1413 133.504 35.1413H130.058L129.914 34.2576C129.494 31.6836 128.797 29.5355 127.958 28.2294C127.837 28.0408 127.719 27.8568 127.697 27.8205C127.635 27.7168 127.8 27.7381 128.569 27.9326ZM135.215 29.8014C136.076 30.251 136.026 31.4677 135.13 31.8768C134.362 32.2276 133.45 31.5621 133.532 30.7105C133.588 30.1315 134.107 29.654 134.681 29.654C134.854 29.654 135.021 29.7001 135.215 29.8014ZM115.866 30.5721C115.669 30.7695 115.639 30.9395 115.762 31.1765C115.943 31.5276 116.485 31.5276 116.667 31.1765C116.807 30.9056 116.721 30.5977 116.47 30.4679C116.233 30.3454 116.063 30.3747 115.866 30.5721ZM121.896 34.6418C122.448 34.9168 122.694 35.5762 122.447 36.1175C122.036 37.0176 120.823 37.0633 120.367 36.1958C120.239 35.952 120.218 35.8592 120.236 35.6071C120.295 34.7655 121.148 34.2692 121.896 34.6418ZM119.255 36.2889C119.446 36.8683 119.89 37.3968 120.393 37.6422L120.693 37.789L120.663 39.2484C120.636 40.5536 120.674 41.8002 120.786 43.3328L120.82 43.7945H117.229H113.637L113.581 43.623C113.466 43.2665 113.262 42.3439 113.172 41.7742C113.102 41.3317 113.079 40.877 113.08 39.9691C113.082 38.5275 113.184 37.7756 113.557 36.4736L113.636 36.1966H116.431C119.045 36.1966 119.227 36.2026 119.255 36.2889ZM129.113 36.2626C129.222 36.5993 129.332 39.9934 129.275 41.269L129.236 42.1467L129.062 42.175C128.742 42.2269 128.303 42.4858 128.005 42.798C127.742 43.0736 127.455 43.5587 127.453 43.7285C127.452 43.8251 121.919 43.8251 121.888 43.7285C121.779 43.3922 121.669 39.998 121.726 38.7247L121.765 37.8495L122.022 37.7835C122.348 37.7002 122.843 37.3821 123.065 37.1145C123.218 36.9295 123.434 36.5335 123.515 36.2889C123.543 36.2026 123.724 36.1966 126.318 36.1966C128.49 36.1966 129.096 36.2109 129.113 36.2626ZM137.419 36.3681C137.536 36.7267 137.739 37.6483 137.828 38.2168C137.959 39.053 137.96 40.9022 137.829 41.7367C137.732 42.3575 137.588 43.0247 137.445 43.5174L137.365 43.7945H134.557H131.75L131.599 43.4476C131.407 43.0078 131.03 42.5934 130.624 42.3771L130.308 42.2084L130.338 40.7458C130.365 39.4373 130.327 38.1921 130.215 36.6583L130.181 36.1966H133.772H137.364L137.419 36.3681ZM130.094 43.3064C130.282 43.4014 130.435 43.5304 130.539 43.6803C130.682 43.887 130.698 43.9489 130.698 44.3221C130.698 44.6953 130.682 44.7572 130.539 44.9639C130.354 45.2314 129.908 45.483 129.62 45.4825C128.953 45.4815 128.435 44.9742 128.435 44.3221C128.435 43.4484 129.313 42.9105 130.094 43.3064ZM121.087 45.7335C121.515 48.3585 122.215 50.4896 123.093 51.8408C123.292 52.1465 123.317 52.2128 123.242 52.2253C123.1 52.2492 121.783 51.9007 121.2 51.685C119.997 51.2394 118.276 50.2736 118.35 50.0851C118.478 49.757 118.546 49.3289 118.52 49.0179C118.392 47.482 116.882 46.5727 115.412 47.1458C115.341 47.1734 115.255 47.0801 115.017 46.7145C114.728 46.2729 114.051 44.9976 114.051 44.8967C114.051 44.8697 115.52 44.8497 117.497 44.8497H120.943L121.087 45.7335ZM127.453 44.9157C127.453 44.952 127.512 45.1068 127.583 45.2598C127.743 45.6034 128.169 46.0614 128.483 46.2281C128.613 46.2969 128.719 46.3805 128.719 46.4137C128.719 46.5354 128.398 47.8816 128.239 48.4285C127.646 50.4663 126.787 51.9333 125.964 52.3167C125.613 52.4803 125.389 52.4805 125.039 52.3175C123.88 51.7779 122.766 49.2611 122.178 45.8522C122.09 45.3444 122.018 44.9111 122.018 44.8893C122.018 44.8675 123.241 44.8497 124.735 44.8497C126.874 44.8497 127.453 44.8637 127.453 44.9157ZM136.95 44.8842C136.95 44.9547 136.326 46.1578 136.105 46.5129C135.122 48.0916 133.597 49.6175 132.018 50.5997C131.465 50.9439 130.5 51.4155 129.851 51.6596C129.275 51.8759 127.969 52.2365 127.761 52.2365C127.653 52.2365 127.653 52.2341 127.748 52.0914C128.595 50.8207 129.221 49.1665 129.692 46.9552L129.778 46.5544L130.106 46.4633C130.812 46.2669 131.321 45.8354 131.599 45.1966L131.75 44.8497H134.35C135.78 44.8497 136.95 44.8652 136.95 44.8842ZM116.854 48.1629C117.737 48.6243 117.649 49.9043 116.709 50.2631C115.956 50.5506 115.114 49.9219 115.171 49.1144C115.213 48.5032 115.723 48.0155 116.32 48.0155C116.493 48.0155 116.66 48.0615 116.854 48.1629Z" fill="#8E2424"/>
<path d="M159.81 40.4545C159.81 41.8523 159.554 43.054 159.043 44.0597C158.531 45.0611 157.83 45.8324 156.94 46.3736C156.053 46.9105 155.045 47.179 153.916 47.179C152.783 47.179 151.771 46.9105 150.88 46.3736C149.994 45.8324 149.295 45.0589 148.783 44.0533C148.272 43.0476 148.016 41.848 148.016 40.4545C148.016 39.0568 148.272 37.8572 148.783 36.8558C149.295 35.8501 149.994 35.0788 150.88 34.5419C151.771 34.0007 152.783 33.7301 153.916 33.7301C155.045 33.7301 156.053 34.0007 156.94 34.5419C157.83 35.0788 158.531 35.8501 159.043 36.8558C159.554 37.8572 159.81 39.0568 159.81 40.4545ZM157.854 40.4545C157.854 39.3892 157.681 38.4922 157.336 37.7635C156.995 37.0305 156.526 36.4766 155.93 36.1016C155.337 35.7223 154.666 35.5327 153.916 35.5327C153.162 35.5327 152.489 35.7223 151.896 36.1016C151.304 36.4766 150.835 37.0305 150.49 37.7635C150.149 38.4922 149.979 39.3892 149.979 40.4545C149.979 41.5199 150.149 42.419 150.49 43.152C150.835 43.8807 151.304 44.4347 151.896 44.8139C152.489 45.1889 153.162 45.3764 153.916 45.3764C154.666 45.3764 155.337 45.1889 155.93 44.8139C156.526 44.4347 156.995 43.8807 157.336 43.152C157.681 42.419 157.854 41.5199 157.854 40.4545ZM162.119 50.6818V37.1818H163.985V38.7734H164.145C164.256 38.5689 164.416 38.3324 164.624 38.0639C164.833 37.7955 165.123 37.5611 165.494 37.3608C165.865 37.1562 166.355 37.054 166.964 37.054C167.757 37.054 168.464 37.2543 169.086 37.6548C169.708 38.0554 170.196 38.6328 170.55 39.3871C170.908 40.1413 171.087 41.049 171.087 42.1101C171.087 43.1712 170.91 44.081 170.556 44.8395C170.203 45.5937 169.717 46.1754 169.099 46.5845C168.481 46.9893 167.776 47.1918 166.983 47.1918C166.387 47.1918 165.899 47.0916 165.519 46.8913C165.144 46.6911 164.85 46.4567 164.637 46.1882C164.424 45.9197 164.26 45.6811 164.145 45.4723H164.03V50.6818H162.119ZM163.992 42.0909C163.992 42.7812 164.092 43.3864 164.292 43.9062C164.492 44.4261 164.782 44.8331 165.161 45.1271C165.541 45.4169 166.005 45.5618 166.555 45.5618C167.126 45.5618 167.603 45.4105 167.987 45.108C168.37 44.8011 168.66 44.3857 168.856 43.8615C169.056 43.3374 169.156 42.7472 169.156 42.0909C169.156 41.4432 169.058 40.8615 168.862 40.3459C168.671 39.8303 168.381 39.4233 167.993 39.125C167.61 38.8267 167.13 38.6776 166.555 38.6776C166.001 38.6776 165.532 38.8203 165.149 39.1058C164.769 39.3913 164.482 39.7898 164.286 40.3011C164.09 40.8125 163.992 41.4091 163.992 42.0909ZM177.811 37.1818V38.7159H172.448V37.1818H177.811ZM173.887 34.8295H175.798V44.1172C175.798 44.4879 175.853 44.767 175.964 44.9545C176.075 45.1378 176.218 45.2635 176.392 45.3317C176.571 45.3956 176.765 45.4276 176.974 45.4276C177.127 45.4276 177.262 45.4169 177.377 45.3956C177.492 45.3743 177.581 45.3572 177.645 45.3445L177.99 46.9233C177.879 46.9659 177.722 47.0085 177.517 47.0511C177.313 47.098 177.057 47.1236 176.75 47.1278C176.247 47.1364 175.779 47.0469 175.344 46.8594C174.909 46.6719 174.558 46.3821 174.289 45.9901C174.021 45.598 173.887 45.1058 173.887 44.5135V34.8295ZM179.925 47V37.1818H181.837V47H179.925ZM180.891 35.6669C180.558 35.6669 180.273 35.5561 180.034 35.3345C179.8 35.1087 179.683 34.8402 179.683 34.5291C179.683 34.2138 179.8 33.9453 180.034 33.7237C180.273 33.4979 180.558 33.3849 180.891 33.3849C181.223 33.3849 181.506 33.4979 181.741 33.7237C181.979 33.9453 182.099 34.2138 182.099 34.5291C182.099 34.8402 181.979 35.1087 181.741 35.3345C181.506 35.5561 181.223 35.6669 180.891 35.6669ZM184.408 47V37.1818H186.242V38.7798H186.364C186.568 38.2386 186.903 37.8168 187.367 37.5142C187.832 37.2074 188.388 37.054 189.036 37.054C189.692 37.054 190.242 37.2074 190.685 37.5142C191.132 37.821 191.463 38.2429 191.676 38.7798H191.778C192.012 38.2557 192.385 37.8381 192.896 37.527C193.408 37.2116 194.017 37.054 194.725 37.054C195.615 37.054 196.342 37.3331 196.904 37.8913C197.471 38.4496 197.754 39.2912 197.754 40.4162V47H195.843V40.5952C195.843 39.9304 195.662 39.4489 195.3 39.1506C194.938 38.8523 194.505 38.7031 194.002 38.7031C193.38 38.7031 192.896 38.8949 192.551 39.2784C192.206 39.6577 192.034 40.1456 192.034 40.7422V47H190.129V40.4737C190.129 39.9411 189.963 39.5128 189.63 39.1889C189.298 38.8651 188.865 38.7031 188.333 38.7031C187.97 38.7031 187.636 38.799 187.329 38.9908C187.026 39.1783 186.781 39.4403 186.594 39.777C186.411 40.1136 186.319 40.5036 186.319 40.9467V47H184.408ZM206.536 42.9283V37.1818H208.453V47H206.574V45.2997H206.472C206.246 45.8239 205.884 46.2607 205.385 46.6101C204.891 46.9553 204.275 47.1278 203.538 47.1278C202.907 47.1278 202.349 46.9893 201.863 46.7124C201.381 46.4311 201.002 46.0156 200.725 45.4659C200.452 44.9162 200.316 44.2365 200.316 43.4268V37.1818H202.227V43.1967C202.227 43.8658 202.413 44.3984 202.783 44.7947C203.154 45.1911 203.636 45.3892 204.228 45.3892C204.586 45.3892 204.942 45.2997 205.295 45.1207C205.653 44.9418 205.95 44.6712 206.184 44.3089C206.423 43.9467 206.54 43.4865 206.536 42.9283ZM218.378 39.5788L216.646 39.8857C216.574 39.6641 216.459 39.4531 216.301 39.2528C216.148 39.0526 215.939 38.8885 215.675 38.7607C215.41 38.6328 215.08 38.5689 214.684 38.5689C214.143 38.5689 213.691 38.6903 213.329 38.9332C212.966 39.1719 212.785 39.4808 212.785 39.8601C212.785 40.1882 212.907 40.4524 213.15 40.6527C213.393 40.853 213.785 41.017 214.326 41.1449L215.885 41.5028C216.789 41.7116 217.462 42.0334 217.905 42.468C218.349 42.9027 218.57 43.4673 218.57 44.1619C218.57 44.75 218.4 45.2741 218.059 45.7344C217.722 46.1903 217.251 46.5483 216.646 46.8082C216.045 47.0682 215.349 47.1982 214.556 47.1982C213.456 47.1982 212.559 46.9638 211.865 46.495C211.17 46.022 210.744 45.3509 210.586 44.4815L212.434 44.2003C212.549 44.6818 212.785 45.0462 213.143 45.2933C213.501 45.5362 213.968 45.6577 214.543 45.6577C215.17 45.6577 215.67 45.5277 216.045 45.2678C216.42 45.0036 216.608 44.6818 216.608 44.3026C216.608 43.9957 216.493 43.7379 216.263 43.5291C216.037 43.3203 215.689 43.1626 215.221 43.0561L213.559 42.6918C212.643 42.483 211.965 42.1506 211.526 41.6946C211.091 41.2386 210.874 40.6612 210.874 39.9624C210.874 39.3828 211.036 38.8757 211.36 38.4411C211.684 38.0064 212.131 37.6676 212.702 37.4247C213.273 37.1776 213.927 37.054 214.665 37.054C215.726 37.054 216.561 37.2841 217.17 37.7443C217.78 38.2003 218.182 38.8118 218.378 39.5788ZM218.843 35.6094V33.9091H228.975V35.6094H224.89V47H222.922V35.6094H218.843ZM233.868 47.1982C232.901 47.1982 232.067 46.9915 231.369 46.5781C230.674 46.1605 230.137 45.5746 229.758 44.8203C229.383 44.0618 229.195 43.1733 229.195 42.1548C229.195 41.1491 229.383 40.2628 229.758 39.4957C230.137 38.7287 230.665 38.13 231.343 37.6996C232.025 37.2692 232.822 37.054 233.734 37.054C234.288 37.054 234.825 37.1456 235.344 37.3288C235.864 37.5121 236.331 37.7997 236.744 38.1918C237.158 38.5838 237.484 39.093 237.722 39.7195C237.961 40.3416 238.08 41.098 238.08 41.9886V42.6662H230.276V41.2344H236.207C236.207 40.7315 236.105 40.2862 235.901 39.8984C235.696 39.5064 235.408 39.1974 235.038 38.9716C234.671 38.7457 234.241 38.6328 233.746 38.6328C233.21 38.6328 232.741 38.7649 232.34 39.0291C231.944 39.2891 231.637 39.63 231.42 40.0518C231.207 40.4695 231.1 40.9233 231.1 41.4134V42.532C231.1 43.1882 231.215 43.7464 231.445 44.2067C231.68 44.6669 232.006 45.0185 232.423 45.2614C232.841 45.5 233.329 45.6193 233.887 45.6193C234.249 45.6193 234.58 45.5682 234.878 45.4659C235.176 45.3594 235.434 45.2017 235.651 44.9929C235.869 44.7841 236.035 44.5263 236.15 44.2195L237.959 44.5455C237.814 45.0781 237.554 45.5447 237.179 45.9453C236.808 46.3416 236.342 46.6506 235.779 46.8722C235.221 47.0895 234.584 47.1982 233.868 47.1982ZM244.336 47.1982C243.386 47.1982 242.568 46.983 241.882 46.5526C241.2 46.1179 240.676 45.5192 240.309 44.7564C239.943 43.9936 239.76 43.12 239.76 42.1357C239.76 41.1385 239.947 40.2585 240.322 39.4957C240.697 38.7287 241.226 38.13 241.907 37.6996C242.589 37.2692 243.393 37.054 244.317 37.054C245.063 37.054 245.728 37.1925 246.312 37.4695C246.895 37.7422 247.366 38.1257 247.724 38.62C248.086 39.1143 248.302 39.6918 248.37 40.3523H246.51C246.407 39.892 246.173 39.4957 245.807 39.1634C245.444 38.831 244.959 38.6648 244.349 38.6648C243.817 38.6648 243.35 38.8054 242.949 39.0866C242.553 39.3636 242.244 39.7599 242.023 40.2756C241.801 40.7869 241.69 41.392 241.69 42.0909C241.69 42.8068 241.799 43.4247 242.016 43.9446C242.233 44.4645 242.54 44.8672 242.937 45.1527C243.337 45.4382 243.808 45.581 244.349 45.581C244.711 45.581 245.04 45.5149 245.334 45.3828C245.632 45.2464 245.881 45.0526 246.081 44.8011C246.286 44.5497 246.429 44.2472 246.51 43.8935H248.37C248.302 44.5284 248.095 45.0952 247.75 45.5938C247.405 46.0923 246.942 46.4844 246.363 46.7699C245.787 47.0554 245.112 47.1982 244.336 47.1982ZM252.325 41.1705V47H250.414V33.9091H252.299V38.7798H252.421C252.651 38.2514 253.002 37.8317 253.475 37.5206C253.949 37.2095 254.566 37.054 255.329 37.054C256.002 37.054 256.591 37.1925 257.093 37.4695C257.6 37.7464 257.993 38.1598 258.27 38.7095C258.551 39.255 258.691 39.9368 258.691 40.755V47H256.78V40.9851C256.78 40.2649 256.595 39.7067 256.224 39.3104C255.853 38.9098 255.338 38.7095 254.677 38.7095C254.225 38.7095 253.821 38.8054 253.463 38.9972C253.109 39.1889 252.83 39.4702 252.625 39.8409C252.425 40.2074 252.325 40.6506 252.325 41.1705Z" fill="#3A404E"/>
<g filter="url(#filter0_d_0_9879)">
</g>
</svg>
